<svg xmlns="http://www.w3.org/2000/svg" width="1200" height="630" viewBox="0 0 1200 630">
  <defs><linearGradient id="bg" x1="0" y1="0" x2="1" y2="1"><stop stop-color="#080812"/><stop offset="1" stop-color="#181331"/></linearGradient><linearGradient id="g" x1="0" x2="1"><stop stop-color="#ad9aff"/><stop offset="1" stop-color="#5ab9ff"/></linearGradient><filter id="blur"><feGaussianBlur stdDeviation="50"/></filter></defs>
  <rect width="1200" height="630" fill="url(#bg)"/><circle cx="1030" cy="60" r="210" fill="#6f4eff" opacity=".22" filter="url(#blur)"/><circle cx="100" cy="590" r="190" fill="#248fd1" opacity=".16" filter="url(#blur)"/>
  <g opacity=".08" stroke="#fff"><path d="M0 90H1200M0 180H1200M0 270H1200M0 360H1200M0 450H1200M0 540H1200"/><path d="M100 0V630M200 0V630M300 0V630M400 0V630M500 0V630M600 0V630M700 0V630M800 0V630M900 0V630M1000 0V630M1100 0V630"/></g>
  <text x="1100" y="120" text-anchor="end" fill="#fff" font-family="Arial" font-size="34" font-weight="700">Slinon</text>
  <text x="1100" y="290" text-anchor="end" direction="rtl" fill="url(#g)" font-family="Arial" font-size="78" font-weight="700">הפיננסים שלכם, בקיצור.</text>
  <text x="1100" y="375" text-anchor="end" direction="rtl" fill="#c8c9d5" font-family="Arial" font-size="34">עדכון קצר, אישי וקולי — רק על מה שבחרתם.</text>
  <g transform="translate(680 455)"><rect width="420" height="82" rx="41" fill="#8b6cff"/><text x="210" y="53" text-anchor="middle" direction="rtl" fill="#fff" font-family="Arial" font-size="26" font-weight="700">vestory מבית סלינון</text></g>
</svg>
